<svg viewBox="0 0 360 278" width="100%" style="display:block"><defs><filter id="glowB" x="-60%" y="-60%" width="220%" height="220%"><feGaussianBlur stdDeviation="2.4" result="b"></feGaussianBlur><feMerge><feMergeNode in="b"></feMergeNode><feMergeNode in="SourceGraphic"></feMergeNode></feMerge></filter></defs>


<rect x="110" y="10" width="140" height="22" rx="2" fill="rgba(127,230,240,0.07)" stroke="rgba(127,230,240,0.45)" stroke-width="1.1"></rect>
<text x="180" y="25" text-anchor="middle" font-size="9" letter-spacing="3" fill="#aef6fb" font-family="&#39;Space Grotesk&#39;,sans-serif" font-weight="700">STAGE</text>


<path d="M112 55 L118 40 L152 40 L152 55 Z" fill="rgba(242,180,138,0.06)" stroke="rgba(242,180,138,0.42)" stroke-width="1" stroke-linejoin="round"></path>
<rect x="158" y="40" width="44" height="15" rx="2" fill="rgba(242,180,138,0.06)" stroke="rgba(242,180,138,0.42)" stroke-width="1"></rect>
<text x="180" y="51" text-anchor="middle" font-size="7.5" font-weight="700" fill="#f2c9a8" font-family="&#39;Space Grotesk&#39;,sans-serif">OP</text>
<path d="M208 40 L242 40 L248 55 L208 55 Z" fill="rgba(242,180,138,0.06)" stroke="rgba(242,180,138,0.42)" stroke-width="1" stroke-linejoin="round"></path>


<path d="M16 118 L16 80 L60 63 L80 63 L80 118 Z" fill="rgba(242,180,138,0.06)" stroke="rgba(242,180,138,0.42)" stroke-width="1.1" stroke-linejoin="round"></path>
<text x="48" y="95" text-anchor="middle" font-size="13" font-weight="700" fill="#f2c9a8" font-family="&#39;Space Grotesk&#39;,sans-serif">A</text>
<path d="M90 118 L98 63 L140 63 L140 118 Z" fill="rgba(242,180,138,0.06)" stroke="rgba(242,180,138,0.42)" stroke-width="1.1" stroke-linejoin="round"></path>
<text x="117" y="93" text-anchor="middle" font-size="13" font-weight="700" fill="#f2c9a8" font-family="&#39;Space Grotesk&#39;,sans-serif">B</text>
<rect x="148" y="63" width="64" height="55" rx="3" fill="#ef9cc2" fill-opacity="0.82" stroke="#ef9cc2" stroke-width="1.6" filter="url(#glowB)"></rect>
<text x="180" y="93" text-anchor="middle" font-size="13" font-weight="700" fill="#ffffff" font-family="&#39;Space Grotesk&#39;,sans-serif">C</text>
<path d="M220 63 L262 63 L270 118 L220 118 Z" fill="rgba(242,180,138,0.06)" stroke="rgba(242,180,138,0.42)" stroke-width="1.1" stroke-linejoin="round"></path>
<text x="243" y="93" text-anchor="middle" font-size="13" font-weight="700" fill="#f2c9a8" font-family="&#39;Space Grotesk&#39;,sans-serif">D</text>
<path d="M280 63 L300 63 L344 80 L344 118 L280 118 Z" fill="rgba(242,180,138,0.06)" stroke="rgba(242,180,138,0.42)" stroke-width="1.1" stroke-linejoin="round"></path>
<text x="312" y="95" text-anchor="middle" font-size="13" font-weight="700" fill="#f2c9a8" font-family="&#39;Space Grotesk&#39;,sans-serif">E</text>


<rect x="16" y="124" width="32" height="44" rx="3" fill="rgba(242,180,138,0.06)" stroke="rgba(242,180,138,0.42)" stroke-width="1.1"></rect>
<text x="32" y="150" text-anchor="middle" font-size="11" font-weight="700" fill="#f2c9a8" font-family="&#39;Space Grotesk&#39;,sans-serif">A</text>
<rect x="54" y="124" width="44" height="44" rx="3" fill="rgba(242,180,138,0.06)" stroke="rgba(242,180,138,0.42)" stroke-width="1.1"></rect>
<text x="76" y="150" text-anchor="middle" font-size="12" font-weight="700" fill="#f2c9a8" font-family="&#39;Space Grotesk&#39;,sans-serif">A</text>
<rect x="104" y="124" width="48" height="44" rx="3" fill="rgba(242,180,138,0.06)" stroke="rgba(242,180,138,0.42)" stroke-width="1.1"></rect>
<rect x="106" y="161" width="44" height="6" rx="1.5" fill="rgba(165,176,196,0.3)"></rect>
<text x="128" y="148" text-anchor="middle" font-size="12" font-weight="700" fill="#f2c9a8" font-family="&#39;Space Grotesk&#39;,sans-serif">B</text>
<rect x="158" y="124" width="48" height="44" rx="3" fill="rgba(242,180,138,0.06)" stroke="rgba(242,180,138,0.42)" stroke-width="1.1"></rect>
<rect x="160" y="161" width="44" height="6" rx="1.5" fill="rgba(165,176,196,0.3)"></rect>
<text x="182" y="148" text-anchor="middle" font-size="12" font-weight="700" fill="#f2c9a8" font-family="&#39;Space Grotesk&#39;,sans-serif">C</text>
<rect x="212" y="124" width="48" height="44" rx="3" fill="rgba(242,180,138,0.06)" stroke="rgba(242,180,138,0.42)" stroke-width="1.1"></rect>
<rect x="214" y="161" width="44" height="6" rx="1.5" fill="#86e3b4" fill-opacity="0.9" stroke="#86e3b4" stroke-width="0.5" filter="url(#glowB)"></rect>
<text x="236" y="148" text-anchor="middle" font-size="12" font-weight="700" fill="#f2c9a8" font-family="&#39;Space Grotesk&#39;,sans-serif">D</text>
<rect x="266" y="124" width="44" height="44" rx="3" fill="rgba(242,180,138,0.06)" stroke="rgba(242,180,138,0.42)" stroke-width="1.1"></rect>
<text x="288" y="150" text-anchor="middle" font-size="12" font-weight="700" fill="#f2c9a8" font-family="&#39;Space Grotesk&#39;,sans-serif">E</text>
<rect x="316" y="124" width="28" height="44" rx="3" fill="rgba(242,180,138,0.06)" stroke="rgba(242,180,138,0.42)" stroke-width="1.1"></rect>
<text x="330" y="150" text-anchor="middle" font-size="11" font-weight="700" fill="#f2c9a8" font-family="&#39;Space Grotesk&#39;,sans-serif">E</text>

<text x="180" y="184" text-anchor="middle" font-size="9" fill="#7d8ba6" font-family="&#39;Pretendard&#39;,sans-serif" font-weight="600">1층</text>
<line x1="16" y1="191" x2="344" y2="191" stroke="rgba(143,233,240,0.16)" stroke-width="1"></line>


<path d="M10 246 L10 209 L26 200 L44 200 L44 246 Z" fill="rgba(127,230,240,0.06)" stroke="rgba(127,230,240,0.42)" stroke-width="1.1" stroke-linejoin="round"></path>
<text x="27" y="227" text-anchor="middle" font-size="12" font-weight="700" fill="#9fd9e6" font-family="&#39;Space Grotesk&#39;,sans-serif">F</text>
<rect x="51" y="200" width="46" height="46" rx="3" fill="rgba(127,230,240,0.06)" stroke="rgba(127,230,240,0.42)" stroke-width="1.1"></rect>
<text x="74" y="227" text-anchor="middle" font-size="13" font-weight="700" fill="#9fd9e6" font-family="&#39;Space Grotesk&#39;,sans-serif">A</text>
<path d="M110 200 L150 200 L150 246 L104 246 Z" fill="rgba(127,230,240,0.06)" stroke="rgba(127,230,240,0.42)" stroke-width="1.1" stroke-linejoin="round"></path>
<text x="130" y="227" text-anchor="middle" font-size="13" font-weight="700" fill="#9fd9e6" font-family="&#39;Space Grotesk&#39;,sans-serif">B</text>
<rect x="157" y="200" width="46" height="46" rx="3" fill="rgba(127,230,240,0.06)" stroke="rgba(127,230,240,0.42)" stroke-width="1.1"></rect>
<text x="180" y="227" text-anchor="middle" font-size="13" font-weight="700" fill="#9fd9e6" font-family="&#39;Space Grotesk&#39;,sans-serif">C</text>
<path d="M210 200 L256 200 L250 246 L210 246 Z" fill="rgba(127,230,240,0.06)" stroke="rgba(127,230,240,0.42)" stroke-width="1.1" stroke-linejoin="round"></path>
<text x="230" y="227" text-anchor="middle" font-size="13" font-weight="700" fill="#9fd9e6" font-family="&#39;Space Grotesk&#39;,sans-serif">D</text>
<rect x="263" y="200" width="46" height="46" rx="3" fill="rgba(127,230,240,0.06)" stroke="rgba(127,230,240,0.42)" stroke-width="1.1"></rect>
<text x="286" y="227" text-anchor="middle" font-size="13" font-weight="700" fill="#9fd9e6" font-family="&#39;Space Grotesk&#39;,sans-serif">E</text>
<path d="M316 200 L334 200 L350 209 L350 246 L316 246 Z" fill="rgba(127,230,240,0.06)" stroke="rgba(127,230,240,0.42)" stroke-width="1.1" stroke-linejoin="round"></path>
<text x="333" y="227" text-anchor="middle" font-size="12" font-weight="700" fill="#9fd9e6" font-family="&#39;Space Grotesk&#39;,sans-serif">G</text>

<text x="180" y="268" text-anchor="middle" font-size="9" fill="#7d8ba6" font-family="&#39;Pretendard&#39;,sans-serif" font-weight="600">2층</text>
</svg>