<svg viewBox="0 0 360 300" width="100%" style="display:block"><defs><filter id="glow" x="-60%" y="-60%" width="220%" height="220%"><feGaussianBlur stdDeviation="2.4" result="b"></feGaussianBlur><feMerge><feMergeNode in="b"></feMergeNode><feMergeNode in="SourceGraphic"></feMergeNode></feMerge></filter></defs>
<path d="M48 48 L74 58 L72 80 L50 76 Z" fill="rgba(143,233,240,0.06)" stroke="rgba(143,233,240,0.22)" stroke-width="0.9"></path><text x="60" y="44" text-anchor="middle" font-size="7" fill="#5d6b85" font-family="'Space Grotesk',sans-serif" font-weight="700">2F</text>
<path d="M312 48 L286 58 L288 80 L310 76 Z" fill="rgba(143,233,240,0.06)" stroke="rgba(143,233,240,0.22)" stroke-width="0.9"></path><text x="300" y="44" text-anchor="middle" font-size="7" fill="#5d6b85" font-family="'Space Grotesk',sans-serif" font-weight="700">2F</text>
<path d="M98 14 L262 14 L262 37 L200 37 L200 86 L160 86 L160 37 L98 37 Z" fill="rgba(127,230,240,0.07)" stroke="rgba(127,230,240,0.45)" stroke-width="1.1" stroke-linejoin="round"></path>
<text x="180" y="29.5" text-anchor="middle" font-size="9.5" letter-spacing="4" fill="#aef6fb" font-family="'Space Grotesk',sans-serif" font-weight="700">STAGE</text>
<text x="180" y="65" text-anchor="middle" font-size="7" letter-spacing="2" fill="#9fd9e6" font-family="'Space Grotesk',sans-serif" font-weight="700">STAGE</text>
<rect x="98" y="51" width="54" height="59" rx="3" fill="rgba(127,230,240,0.05)" stroke="rgba(127,230,240,0.42)" stroke-width="1.1"></rect><text x="125" y="88" text-anchor="middle" font-size="13" fill="#cfe7ef" font-family="'Space Grotesk',sans-serif" font-weight="700">A</text><text x="125" y="62" text-anchor="middle" font-size="6" letter-spacing="1.5" fill="#5d6b85" font-family="'Pretendard',sans-serif">FLOOR</text>
<rect x="208" y="51" width="54" height="59" rx="3" fill="rgba(127,230,240,0.05)" stroke="rgba(127,230,240,0.42)" stroke-width="1.1"></rect><text x="235" y="88" text-anchor="middle" font-size="13" fill="#cfe7ef" font-family="'Space Grotesk',sans-serif" font-weight="700">B</text><text x="235" y="62" text-anchor="middle" font-size="6" letter-spacing="1.5" fill="#5d6b85" font-family="'Pretendard',sans-serif">FLOOR</text>
<rect x="98" y="120" width="164" height="36" rx="3" fill="rgba(127,230,240,0.05)" stroke="rgba(127,230,240,0.42)" stroke-width="1.1"></rect><text x="180" y="142" text-anchor="middle" font-size="13" fill="#cfe7ef" font-family="'Space Grotesk',sans-serif" font-weight="700">C</text>
<path id="zone-50" d="M42.73 95.8 L39.07 123.57 L77.05 124.76 L79.72 104.48 Z" fill="#0c1626" fill-opacity="1" stroke="rgba(127,230,240,0.5)" stroke-width="1" stroke-linejoin="round"></path>
<path id="zone-49" d="M39.07 132.43 L42.73 160.2 L79.72 151.52 L77.05 131.24 Z" fill="#0c1626" fill-opacity="1" stroke="rgba(127,230,240,0.5)" stroke-width="1" stroke-linejoin="round"></path>
<path id="zone-48" d="M45.02 168.75 L55.74 194.63 L89.23 176.67 L81.4 157.77 Z" fill="#0c1626" fill-opacity="1" stroke="rgba(127,230,240,0.5)" stroke-width="1" stroke-linejoin="round"></path>
<path id="zone-47" d="M60.17 202.3 L77.22 224.52 L104.92 198.51 L92.46 182.28 Z" fill="#0c1626" fill-opacity="1" stroke="rgba(127,230,240,0.5)" stroke-width="1" stroke-linejoin="round"></path>
<path id="zone-46" d="M83.48 230.78 L105.7 247.83 L125.72 215.54 L109.49 203.08 Z" fill="#0c1626" fill-opacity="1" stroke="rgba(127,230,240,0.5)" stroke-width="1" stroke-linejoin="round"></path>
<path id="zone-45" d="M113.37 252.26 L139.25 262.98 L150.23 226.6 L131.33 218.77 Z" fill="#0c1626" fill-opacity="1" stroke="rgba(127,230,240,0.5)" stroke-width="1" stroke-linejoin="round"></path>
<path id="zone-44" d="M147.8 265.27 L175.57 268.93 L176.76 230.95 L156.48 228.28 Z" fill="#0c1626" fill-opacity="1" stroke="rgba(127,230,240,0.5)" stroke-width="1" stroke-linejoin="round"></path>
<path id="zone-43" d="M184.43 268.93 L212.2 265.27 L203.52 228.28 L183.24 230.95 Z" fill="#0c1626" fill-opacity="1" stroke="rgba(127,230,240,0.5)" stroke-width="1" stroke-linejoin="round"></path>
<path id="zone-42" d="M220.75 262.98 L246.63 252.26 L228.67 218.77 L209.77 226.6 Z" fill="#0c1626" fill-opacity="1" stroke="rgba(127,230,240,0.5)" stroke-width="1" stroke-linejoin="round"></path>
<path id="zone-41" d="M254.3 247.83 L276.52 230.78 L250.51 203.08 L234.28 215.54 Z" fill="#0c1626" fill-opacity="1" stroke="rgba(127,230,240,0.5)" stroke-width="1" stroke-linejoin="round"></path>
<path id="zone-40" d="M282.78 224.52 L299.83 202.3 L267.54 182.28 L255.08 198.51 Z" fill="#0c1626" fill-opacity="1" stroke="rgba(127,230,240,0.5)" stroke-width="1" stroke-linejoin="round"></path>
<path id="zone-39" d="M304.26 194.63 L314.98 168.75 L278.6 157.77 L270.77 176.67 Z" fill="#0c1626" fill-opacity="1" stroke="rgba(127,230,240,0.5)" stroke-width="1" stroke-linejoin="round"></path>
<path id="zone-38" d="M317.27 160.2 L320.93 132.43 L282.95 131.24 L280.28 151.52 Z" fill="#0c1626" fill-opacity="1" stroke="rgba(127,230,240,0.5)" stroke-width="1" stroke-linejoin="round"></path>
<path id="zone-37" d="M320.93 123.57 L317.27 95.8 L280.28 104.48 L282.95 124.76 Z" fill="#0c1626" fill-opacity="1" stroke="rgba(127,230,240,0.5)" stroke-width="1" stroke-linejoin="round"></path>
<text id="zone-text-50" x="59.04" y="115.08" text-anchor="middle" font-size="9" font-weight="700" fill="#9fd9e6" font-family="'Space Grotesk',sans-serif">50</text>
<text id="zone-text-49" x="59.04" y="146.92" text-anchor="middle" font-size="9" font-weight="700" fill="#9fd9e6" font-family="'Space Grotesk',sans-serif">49</text>
<text id="zone-text-48" x="67.29" y="177.69" text-anchor="middle" font-size="9" font-weight="700" fill="#9fd9e6" font-family="'Space Grotesk',sans-serif">48</text>
<text id="zone-text-47" x="83.21" y="205.27" text-anchor="middle" font-size="9" font-weight="700" fill="#9fd9e6" font-family="'Space Grotesk',sans-serif">47</text>
<text id="zone-text-46" x="105.73" y="227.79" text-anchor="middle" font-size="9" font-weight="700" fill="#9fd9e6" font-family="'Space Grotesk',sans-serif">46</text>
<text id="zone-text-45" x="133.31" y="243.71" text-anchor="middle" font-size="9" font-weight="700" fill="#9fd9e6" font-family="'Space Grotesk',sans-serif">45</text>
<text id="zone-text-44" x="164.08" y="251.96" text-anchor="middle" font-size="9" font-weight="700" fill="#9fd9e6" font-family="'Space Grotesk',sans-serif">44</text>
<text id="zone-text-43" x="195.92" y="251.96" text-anchor="middle" font-size="9" font-weight="700" fill="#9fd9e6" font-family="'Space Grotesk',sans-serif">43</text>
<text id="zone-text-42" x="226.69" y="243.71" text-anchor="middle" font-size="9" font-weight="700" fill="#9fd9e6" font-family="'Space Grotesk',sans-serif">42</text>
<text id="zone-text-41" x="254.27" y="227.79" text-anchor="middle" font-size="9" font-weight="700" fill="#9fd9e6" font-family="'Space Grotesk',sans-serif">41</text>
<text id="zone-text-40" x="276.79" y="205.27" text-anchor="middle" font-size="9" font-weight="700" fill="#9fd9e6" font-family="'Space Grotesk',sans-serif">40</text>
<text id="zone-text-39" x="292.71" y="177.69" text-anchor="middle" font-size="9" font-weight="700" fill="#9fd9e6" font-family="'Space Grotesk',sans-serif">39</text>
<text id="zone-text-38" x="300.96" y="146.92" text-anchor="middle" font-size="9" font-weight="700" fill="#9fd9e6" font-family="'Space Grotesk',sans-serif">38</text>
<text id="zone-text-37" x="300.96" y="115.08" text-anchor="middle" font-size="9" font-weight="700" fill="#9fd9e6" font-family="'Space Grotesk',sans-serif">37</text>
</svg>
