<svg viewBox="0 -15 340 290" width="100%" style="display:block"><defs><filter id="bg" x="-30%" y="-30%" width="160%" height="160%"><feGaussianBlur stdDeviation="3"></feGaussianBlur></filter></defs><rect x="120" y="244" width="100" height="18" rx="9" fill="none" stroke="#7fe6f0" stroke-width="1.4" opacity="0.9"></rect><text x="170" y="256" text-anchor="middle" font-size="9" letter-spacing="3" fill="#7fe6f0" font-family="Pretendard,sans-serif" font-weight="700">STAGE</text><rect x="128" y="206" width="24" height="30" rx="4" fill="none" fill-opacity="0" stroke="#7fe6f0" stroke-width="1.2" opacity="0.5"></rect><text x="140" y="225" text-anchor="middle" font-size="11" fill="#7fe6f0" font-family="Pretendard,sans-serif" font-weight="700" opacity="0.7">B</text><rect x="158" y="206" width="24" height="30" rx="4" fill="#7fe6f0" fill-opacity="0.34" stroke="#7fe6f0" stroke-width="1.2" opacity="1"></rect><text x="170" y="225" text-anchor="middle" font-size="11" fill="#eaf2ff" font-family="Pretendard,sans-serif" font-weight="700" opacity="1">A</text><rect x="188" y="206" width="24" height="30" rx="4" fill="none" fill-opacity="0" stroke="#7fe6f0" stroke-width="1.2" opacity="0.5"></rect><text x="200" y="225" text-anchor="middle" font-size="11" fill="#7fe6f0" font-family="Pretendard,sans-serif" font-weight="700" opacity="0.7">C</text><text x="170" y="200" text-anchor="middle" font-size="7.5" letter-spacing="2" fill="#5d6b85" font-family="Pretendard,sans-serif">STANDING</text><path id="zone-37" d="M70.3 186.5 L34.1 203.4 L22.7 168.3 L62.0 160.7 Z" fill="none" fill-opacity="0" stroke="rgba(143,233,240,0.32)" stroke-width="1" stroke-linejoin="round"></path><path id="zone-38" d="M61.2 156.4 L21.7 162.4 L20.7 125.5 L60.5 129.3 Z" fill="none" fill-opacity="0" stroke="rgba(143,233,240,0.32)" stroke-width="1" stroke-linejoin="round"></path><path id="zone-39" d="M61.0 125.0 L21.4 119.5 L30.9 83.8 L68.0 98.8 Z" fill="none" fill-opacity="0" stroke="rgba(143,233,240,0.32)" stroke-width="1" stroke-linejoin="round"></path><path id="zone-40" d="M69.7 94.8 L33.3 78.3 L52.5 46.8 L83.8 71.7 Z" fill="none" fill-opacity="0" stroke="rgba(143,233,240,0.32)" stroke-width="1" stroke-linejoin="round"></path><path id="zone-41" d="M86.6 68.2 L56.3 42.2 L83.6 17.4 L106.7 50.1 Z" fill="none" fill-opacity="0" stroke="rgba(143,233,240,0.32)" stroke-width="1" stroke-linejoin="round"></path><path id="zone-42" d="M110.3 47.6 L88.6 14.0 L121.8 -2.1 L134.7 35.8 Z" fill="none" fill-opacity="0" stroke="rgba(143,233,240,0.32)" stroke-width="1" stroke-linejoin="round"></path><path id="zone-43" d="M138.9 34.5 L127.6 -3.9 L164.0 -9.9 L165.6 30.1 Z" fill="none" fill-opacity="0" stroke="rgba(143,233,240,0.32)" stroke-width="1" stroke-linejoin="round"></path><path id="zone-44" d="M170.0 30.0 L170.0 -10.0 L206.6 -5.5 L196.9 33.3 Z" fill="none" fill-opacity="0" stroke="rgba(143,233,240,0.32)" stroke-width="1" stroke-linejoin="round"></path><path id="zone-45" d="M201.1 34.5 L212.4 -3.9 L246.3 10.8 L225.9 45.3 Z" fill="none" fill-opacity="0" stroke="rgba(143,233,240,0.32)" stroke-width="1" stroke-linejoin="round"></path><path id="zone-46" d="M229.7 47.6 L251.4 14.0 L279.7 37.7 L250.4 65.0 Z" fill="none" fill-opacity="0" stroke="rgba(143,233,240,0.32)" stroke-width="1" stroke-linejoin="round"></path><path id="zone-47" d="M253.4 68.2 L283.7 42.2 L304.1 72.9 L268.4 90.8 Z" fill="none" fill-opacity="0" stroke="rgba(143,233,240,0.32)" stroke-width="1" stroke-linejoin="round"></path><path id="zone-48" d="M270.3 94.8 L306.7 78.3 L317.6 113.5 L278.3 120.6 Z" fill="none" fill-opacity="0" stroke="rgba(143,233,240,0.32)" stroke-width="1" stroke-linejoin="round"></path><path id="zone-49" d="M279.0 125.0 L318.6 119.5 L319.1 156.4 L279.3 152.0 Z" fill="none" fill-opacity="0" stroke="rgba(143,233,240,0.32)" stroke-width="1" stroke-linejoin="round"></path><path id="zone-50" d="M278.8 156.4 L318.3 162.4 L308.4 197.9 L271.5 182.4 Z" fill="none" fill-opacity="0" stroke="rgba(143,233,240,0.32)" stroke-width="1" stroke-linejoin="round"></path><text x="46.3" y="183.0" text-anchor="middle" font-size="7.5" fill="#6b7a96" font-family="Pretendard,sans-serif" font-weight="500">37</text><text x="40.0" y="146.4" text-anchor="middle" font-size="7.5" fill="#6b7a96" font-family="Pretendard,sans-serif" font-weight="500">38</text><text x="44.4" y="109.5" text-anchor="middle" font-size="7.5" fill="#6b7a96" font-family="Pretendard,sans-serif" font-weight="500">39</text><text id="zone-text-40" x="59.0" y="75.4" text-anchor="middle" font-size="7.5" fill="#6b7a96" font-family="Pretendard,sans-serif" font-weight="500">40</text><text x="82.6" y="46.7" text-anchor="middle" font-size="7.5" fill="#6b7a96" font-family="Pretendard,sans-serif" font-weight="500">41</text><text x="113.4" y="26.0" text-anchor="middle" font-size="7.5" fill="#6b7a96" font-family="Pretendard,sans-serif" font-weight="500">42</text><text x="148.8" y="14.7" text-anchor="middle" font-size="7.5" fill="#6b7a96" font-family="Pretendard,sans-serif" font-weight="500">43</text><text id="zone-text-44" x="186.0" y="14.0" text-anchor="middle" font-size="7.5" fill="#6b7a96" font-family="Pretendard,sans-serif" font-weight="500">44</text><text x="221.8" y="23.8" text-anchor="middle" font-size="7.5" fill="#6b7a96" font-family="Pretendard,sans-serif" font-weight="500">45</text><text x="253.4" y="43.3" text-anchor="middle" font-size="7.5" fill="#6b7a96" font-family="Pretendard,sans-serif" font-weight="500">46</text><text x="278.2" y="71.0" text-anchor="middle" font-size="7.5" fill="#6b7a96" font-family="Pretendard,sans-serif" font-weight="500">47</text><text id="zone-text-48" x="294.2" y="104.5" text-anchor="middle" font-size="7.5" fill="#6b7a96" font-family="Pretendard,sans-serif" font-weight="500">48</text><text x="300.0" y="141.2" text-anchor="middle" font-size="7.5" fill="#6b7a96" font-family="Pretendard,sans-serif" font-weight="500">49</text><text x="295.2" y="178.0" text-anchor="middle" font-size="7.5" fill="#6b7a96" font-family="Pretendard,sans-serif" font-weight="500">50</text><text x="170" y="120" text-anchor="middle" font-size="8" letter-spacing="3" fill="#46546f" font-family="Pretendard,sans-serif" font-weight="600">2F</text></svg>
